<svg width="144" height="34" viewBox="0 0 144 34" fill="none" xmlns="http://www.w3.org/2000/svg">
<g style="mix-blend-mode:difference" clip-path="url(#clip0_1_341)">
<path fill-rule="evenodd" clip-rule="evenodd" d="M8.86257 2.125V34H0.349991V2.125H8.86257Z" fill="white"/>
<path fill-rule="evenodd" clip-rule="evenodd" d="M13.1188 2.125H31.2081C37.0848 2.125 41.8488 6.88197 41.8488 12.75C41.8488 18.6181 37.0848 23.375 31.2081 23.375H21.6314V34H13.1188V2.125ZM21.6314 14.875H31.2081C32.3835 14.875 33.3363 13.9236 33.3363 12.75C33.3363 11.5764 32.3835 10.625 31.2081 10.625H21.6314V14.875Z" fill="white"/>
<path fill-rule="evenodd" clip-rule="evenodd" d="M73.7711 2.125V18.5938C73.7711 22.408 76.8677 25.5 80.6876 25.5C84.5075 25.5 87.6042 22.408 87.6042 18.5938V2.125H96.1169V18.5938C96.1169 27.1024 89.209 34 80.6876 34C72.1663 34 65.2585 27.1024 65.2585 18.5938V2.125H73.7711Z" fill="white"/>
<path fill-rule="evenodd" clip-rule="evenodd" d="M45.0411 17C45.0411 8.78475 51.7107 2.125 59.9381 2.125H62.0663V10.625H59.9381C56.4121 10.625 53.5537 13.4792 53.5537 17V18.0625C53.5537 26.8645 46.4077 34 37.5926 34H36.5285V25.5H37.5926C41.7063 25.5 45.0411 22.1701 45.0411 18.0625V17Z" fill="white"/>
<path d="M144 3.1875C144 4.94791 142.571 6.375 140.807 6.375C139.044 6.375 137.616 4.94791 137.616 3.1875C137.616 1.42709 139.044 0 140.807 0C142.571 0 144 1.42709 144 3.1875Z" fill="white"/>
<path d="M105.257 34L109.319 17.0154L112.339 27.2334C114.139 33.3277 122.785 33.3277 124.586 27.2334L127.605 17.0154L131.667 34H140.419L134.032 7.29257C132.513 0.941331 123.55 0.706171 121.699 6.96908L118.463 17.9208L115.226 6.96909C113.375 0.706208 104.411 0.941297 102.892 7.29257L96.5054 34H105.257Z" fill="white"/>
</g>
<defs>
<clipPath id="clip0_1_341">
<rect width="143.65" height="34" fill="white" transform="translate(0.349976)"/>
</clipPath>
</defs>
</svg>
